# xmcd CD database file
#
# Track frame offsets:
#	150
#	107554
#	202155
#
# Disc length: 3709 seconds
#
# Revision: 0
# Processed by: cddbd v1.5.1PL0 Copyright (c) Steve Scherf et al.
# Submitted via: CDex 1.51
#
DISCID=240e7b03
DTITLE=KVHW - PONR
DYEAR=1999
DGENRE=Jazz
TTITLE0=Point Of No Return-studio
TTITLE1=Point Of No Return-990919
TTITLE2=Footprints-uknown origin
EXTD=YEAR: 1999
EXTT0=
EXTT1=
EXTT2=
PLAYORDER=
